<?xml version="1.0" encoding="UTF-8" standalone="no"?><!-- Generator: Gravit.io --><svg xmlns="http://www.w3.org/2000/svg" xmlns:xlink="http://www.w3.org/1999/xlink" style="isolation:isolate" viewBox="0 0 129 120" width="129pt" height="120pt"><defs><clipPath id="_clipPath_OY0IKyGEpCofzbs8fBKlwxkTocFtc8V6"><rect width="129" height="120"/></clipPath></defs><g clip-path="url(#_clipPath_OY0IKyGEpCofzbs8fBKlwxkTocFtc8V6)"><path d=" M 58.5 4.6 C 57.4 4.8 54.5 5.6 52 6.2 C 34.2 10.6 18.1 26.7 12.9 45.5 C 11.1 51.9 11.1 66.1 12.9 72.5 C 17 87.1 27.7 100.6 40.5 107.1 C 50.1 112 56 113.5 66 113.5 C 76 113.5 81.9 112 91.5 107.1 C 104.3 100.6 115 87.1 119.1 72.5 C 120.9 66.1 120.9 51.9 119.1 45.5 C 114 27.1 99.4 12.1 81.3 6.4 C 76.3 4.9 62 3.7 58.5 4.6 Z  M 76.5 17.5 C 84.8 19.7 91.2 23.5 97.1 29.7 C 120.6 54.6 106.7 95.4 72.6 101.3 C 44.7 106.1 18.9 80.4 23.7 52.6 C 28 27.2 52.1 11.2 76.5 17.5 Z " fill="rgb(31,90,122)"/><path d=" M 43.6 36.6 C 41 39.2 41.9 44.2 45.2 45.8 C 50.3 48.2 55.2 43.3 52.8 38.2 C 51.2 34.9 46.2 34 43.6 36.6 Z " fill="rgb(31,90,122)"/><path d=" M 80.2 36.2 C 77.8 39.3 77.9 41.9 80.5 44.5 C 83.1 47.1 85.7 47.2 88.8 44.8 C 90.5 43.4 90.3 38.5 88.4 36.6 C 86.5 34.7 81.6 34.5 80.2 36.2 Z " fill="rgb(31,90,122)"/><path d=" M 45 72.3 C 41.9 73.8 41.1 78.9 43.5 81.4 C 45.4 83.3 50.3 83.5 51.8 81.7 C 54.2 78.7 54.1 76.1 51.6 73.5 C 48.7 70.6 48.4 70.6 45 72.3 Z " fill="rgb(31,90,122)"/><path d=" M 80.5 73.5 C 77.9 76.1 77.8 78.7 80.2 81.7 C 81.6 83.5 86.5 83.3 88.4 81.4 C 90.3 79.5 90.5 74.6 88.8 73.2 C 85.7 70.8 83.1 70.9 80.5 73.5 Z " fill="rgb(31,90,122)"/></g></svg>